<?xml version="1.0" standalone="no"?>
<!DOCTYPE svg PUBLIC "-//W3C//DTD SVG 20010904//EN"
 "http://www.w3.org/TR/2001/REC-SVG-20010904/DTD/svg10.dtd">
<svg version="1.0" xmlns="http://www.w3.org/2000/svg"
 width="1041.000000pt" height="585.000000pt" viewBox="0 0 1041.000000 585.000000"
 preserveAspectRatio="xMidYMid meet">

<g transform="translate(0.000000,585.000000) scale(0.100000,-0.100000)"
fill="#000000" stroke="none">
<path d="M6278 4893 c-10 -2 -18 -13 -18 -23 0 -17 4 -18 26 -10 43 17 92 12
104 -9 18 -35 11 -51 -60 -126 -38 -41 -70 -81 -70 -89 0 -13 15 -16 90 -16
73 0 90 3 90 15 0 12 -14 15 -67 15 l-66 0 56 59 c31 33 61 71 67 86 13 34 3
72 -23 90 -20 14 -90 18 -129 8z"/>
<path d="M7417 4893 c-21 -21 -4 -29 52 -25 52 4 60 2 70 -17 18 -33 -2 -60
-50 -67 -49 -8 -46 -27 5 -35 55 -9 74 -50 39 -84 -13 -14 -29 -16 -75 -12
-51 4 -59 3 -56 -11 4 -20 62 -36 107 -28 76 12 108 92 56 138 -24 21 -24 22
-5 35 28 20 27 77 -2 97 -23 16 -128 23 -141 9z"/>
<path d="M8840 4815 l0 -75 -75 0 c-73 0 -75 -1 -75 -25 0 -24 2 -25 75 -25
l75 0 0 -75 c0 -73 1 -75 25 -75 24 0 25 2 25 75 l0 75 75 0 c73 0 75 1 75 25
0 24 -2 25 -75 25 l-75 0 0 75 c0 73 -1 75 -25 75 -24 0 -25 -2 -25 -75z"/>
<path d="M6640 4826 c0 -13 44 -34 142 -65 53 -17 54 -26 5 -41 -91 -27 -147
-52 -147 -66 0 -19 1 -19 130 29 74 27 115 48 115 57 0 9 -41 30 -115 57 -129
48 -130 48 -130 29z"/>
<path d="M7095 4750 c-15 -24 12 -30 121 -30 107 0 114 1 114 20 0 19 -7 20
-114 20 -66 0 -117 -4 -121 -10z"/>
<path d="M9040 4465 l0 -25 173 2 c170 3 172 3 175 26 l3 22 -175 0 -176 0 0
-25z"/>
<path d="M8511 4436 c-11 -13 -5 -24 35 -71 26 -30 51 -55 56 -55 19 0 5 -29
-30 -63 l-38 -37 -100 0 -100 0 -22 -45 -22 -45 140 0 140 0 0 -125 0 -125
-120 0 -120 0 0 -136 0 -135 23 8 c12 4 56 8 98 8 108 0 119 -11 119 -121 0
-77 -2 -84 -26 -103 -45 -35 -108 -37 -212 -5 -22 6 -23 4 -20 -27 2 -26 9
-35 28 -40 39 -11 176 -10 204 1 l26 10 0 -275 0 -275 -50 0 -50 0 0 -101 c0
-92 2 -101 18 -94 9 4 32 9 50 12 l32 6 0 -93 0 -93 -42 6 c-24 2 -51 8 -60
12 -14 6 -18 2 -18 -18 0 -32 7 -36 70 -44 49 -6 50 -6 50 -39 l0 -34 -1430 0
-1430 0 0 215 0 215 28 0 c67 0 73 79 7 92 -31 5 -24 32 10 39 29 6 29 7 -7 8
l-38 1 0 113 0 113 63 170 c35 93 83 222 107 287 34 93 49 121 67 128 36 13
29 39 -10 39 l-34 0 -83 -227 c-46 -126 -89 -241 -96 -258 -11 -25 -13 46 -14
428 l0 457 670 0 c598 0 670 -2 670 -15 0 -13 7 -14 38 -8 89 19 152 -2 152
-51 0 -41 -36 -66 -94 -66 -32 0 -36 -3 -36 -25 0 -23 3 -25 49 -25 42 0 53
-4 70 -26 24 -31 26 -43 10 -78 -20 -43 -86 -55 -176 -30 -20 5 -23 2 -23 -19
0 -22 6 -27 38 -34 91 -18 173 1 206 49 9 13 16 43 16 69 0 41 -4 51 -31 74
-32 26 -32 26 -11 41 12 8 26 33 33 56 9 36 8 45 -8 67 -11 14 -36 34 -57 45
-21 10 -42 29 -48 42 l-11 24 -748 0 -748 0 -20 -26 c-20 -26 -21 -38 -22
-398 0 -262 -3 -365 -11 -350 -10 21 -11 21 -59 6 -53 -17 -68 -45 -22 -40 25
3 28 -2 59 -87 l33 -90 0 -486 c1 -476 1 -487 22 -513 l20 -26 627 -2 627 -3
-2 -25 c-1 -14 -7 -96 -14 -182 l-12 -157 -234 -3 c-253 -3 -253 -3 -253 -59
0 -14 5 -30 12 -37 17 -17 1399 -17 1416 0 7 7 12 27 12 45 0 27 -5 35 -26 43
-14 6 -120 10 -235 10 -205 0 -209 0 -209 21 0 24 -18 244 -25 307 l-5 42 629
0 c730 0 663 -11 669 113 3 60 8 76 29 98 47 51 49 140 2 190 -25 26 -29 39
-29 85 0 47 2 54 20 54 13 0 20 7 20 20 0 14 -7 20 -21 20 -20 0 -20 2 -15
343 3 188 5 356 6 372 0 17 -4 175 -8 351 -6 297 -8 324 -26 343 -18 20 -18
22 -1 41 10 11 23 20 29 20 7 0 36 -25 66 -55 58 -59 67 -64 77 -39 4 10 -13
35 -53 75 l-58 59 62 63 c59 59 61 64 45 80 -16 16 -21 14 -80 -45 l-63 -62
-63 62 c-55 54 -65 61 -76 48z m59 -695 l0 -80 -30 10 c-16 6 -55 9 -85 7
l-55 -3 0 73 0 72 85 0 85 0 0 -79z m-2810 -946 c18 -21 5 -45 -25 -45 -20 0
-25 5 -25 23 0 39 26 50 50 22z m2810 -99 c0 -42 -10 -56 -41 -56 -10 0 -13
83 -2 93 3 4 15 7 25 7 15 0 18 -8 18 -44z m87 -203 c-3 -10 -5 -2 -5 17 0 19
2 27 5 18 2 -10 2 -26 0 -35z"/>
<path d="M5602 4384 c-16 -11 -22 -25 -22 -55 0 -52 15 -79 44 -79 34 0 51 26
51 77 0 33 -5 48 -19 59 -25 18 -27 17 -54 -2z m48 -29 c5 -14 7 -39 3 -56 -8
-41 -46 -38 -51 5 -8 67 28 105 48 51z"/>
<path d="M5779 4381 c-20 -16 -22 -23 -13 -47 8 -24 15 -29 42 -29 23 0 31 -4
27 -13 -3 -8 -5 -16 -5 -18 0 -2 -13 -4 -30 -4 -16 0 -30 -4 -30 -10 0 -5 13
-10 29 -10 56 0 83 88 41 130 -25 25 -32 25 -61 1z m56 -21 c8 -25 -1 -40 -25
-40 -10 0 -22 5 -25 10 -11 17 6 50 25 50 10 0 21 -9 25 -20z"/>
<path d="M5908 4389 c-22 -12 -24 -62 -3 -79 8 -7 24 -10 36 -7 15 4 19 1 17
-11 -2 -11 -15 -18 -36 -20 -36 -4 -34 -22 3 -22 36 0 55 26 55 75 0 34 -5 47
-22 59 -26 19 -27 19 -50 5z m47 -39 c0 -18 -6 -26 -22 -28 -18 -3 -23 1 -23
21 0 28 9 39 30 35 9 -2 15 -14 15 -28z"/>
<path d="M6026 4384 c-36 -35 -9 -91 39 -82 21 4 23 3 14 -13 -5 -11 -21 -19
-34 -19 -14 0 -25 -4 -25 -10 0 -16 56 -11 71 7 22 25 18 102 -5 119 -25 18
-41 18 -60 -2z m52 -37 c3 -22 -1 -27 -18 -27 -23 0 -35 22 -26 46 10 25 41
12 44 -19z"/>
<path d="M6620 4380 c0 -5 7 -10 15 -10 11 0 15 -12 15 -50 0 -38 -4 -50 -15
-50 -8 0 -15 -4 -15 -10 0 -5 21 -10 48 -10 41 1 45 2 30 14 -14 10 -18 28
-18 70 0 56 0 56 -30 56 -16 0 -30 -4 -30 -10z"/>
<path d="M6400 4330 c0 -6 27 -10 60 -10 33 0 60 4 60 10 0 6 -27 10 -60 10
-33 0 -60 -4 -60 -10z"/>
<path d="M6400 4290 c0 -5 24 -10 54 -10 30 0 58 5 61 10 4 6 -17 10 -54 10
-34 0 -61 -4 -61 -10z"/>
<path d="M5710 4265 c0 -8 5 -15 10 -15 6 0 10 7 10 15 0 8 -4 15 -10 15 -5 0
-10 -7 -10 -15z"/>
<path d="M6146 4271 c-4 -7 -5 -15 -2 -18 9 -9 19 4 14 18 -4 11 -6 11 -12 0z"/>
<path d="M6210 4265 c0 -8 5 -15 10 -15 6 0 10 7 10 15 0 8 -4 15 -10 15 -5 0
-10 -7 -10 -15z"/>
<path d="M6276 4271 c-4 -7 -5 -15 -2 -18 9 -9 19 4 14 18 -4 11 -6 11 -12 0z"/>
<path d="M3932 4213 c-7 -3 -19 -18 -27 -33 -13 -25 -15 -194 -15 -1265 l0
-1237 29 -29 29 -29 506 0 c297 0 515 4 530 10 59 22 56 -46 54 1304 l-3 1234
-24 26 -24 26 -521 -1 c-287 0 -527 -3 -534 -6z m833 -288 c0 -20 -7 -20 -315
-22 -173 -2 -321 1 -329 6 -8 5 -11 16 -8 25 6 15 40 16 329 14 315 -3 323 -3
323 -23z m3 -107 c3 -17 -17 -18 -322 -18 -206 0 -327 4 -331 10 -17 27 15 30
328 28 297 -3 322 -4 325 -20z m-35 -219 c26 -32 22 -83 -9 -108 -45 -35 -95
-26 -119 20 -22 41 -19 57 15 91 26 25 36 29 63 24 18 -3 40 -16 50 -27z m17
-469 c0 -20 -7 -20 -325 -20 -318 0 -325 0 -325 20 0 20 7 20 325 20 318 0
325 0 325 -20z m0 -130 c0 -20 -7 -20 -325 -20 -318 0 -325 0 -325 20 0 20 7
20 325 20 318 0 325 0 325 -20z m-5 -135 c0 -20 -7 -20 -320 -20 l-320 0 -3
23 -3 22 323 -2 c315 -3 323 -3 323 -23z m3 -132 l3 -23 -325 0 c-309 0 -326
1 -326 18 0 10 3 22 7 25 4 4 149 6 322 5 l316 -3 3 -22z m92 -452 c5 -11 10
-79 10 -152 0 -173 3 -169 -140 -169 -69 0 -110 4 -118 12 -8 8 -12 58 -12
158 0 100 4 150 12 158 8 8 50 12 125 12 101 0 113 -2 123 -19z"/>
<path d="M8882 4213 c-32 -13 -42 -61 -42 -197 l0 -134 -30 -7 c-21 -5 -30
-13 -30 -26 0 -22 0 -22 34 -9 l26 10 0 -93 c0 -91 -1 -94 -30 -122 -16 -16
-30 -37 -30 -47 0 -13 8 -18 30 -18 l30 0 0 -240 c0 -153 -4 -240 -10 -240 -5
0 -10 21 -10 46 0 59 -24 55 -28 -4 -3 -42 -3 -42 -43 -42 -28 0 -39 -4 -39
-15 0 -11 11 -15 39 -15 40 0 40 0 43 -42 4 -56 28 -64 28 -9 0 22 5 43 10 46
7 4 10 -122 10 -369 0 -328 -2 -376 -15 -376 -12 0 -15 17 -15 90 l0 90 -29 0
c-16 0 -34 -7 -41 -15 -11 -13 -8 -15 14 -15 26 0 26 -1 26 -75 0 -68 -2 -75
-20 -75 -11 0 -20 -4 -20 -10 0 -5 23 -10 50 -10 l50 0 0 -306 0 -306 29 -29
30 -30 520 3 520 3 23 23 23 23 0 1248 0 1249 -24 26 -24 26 -521 -1 c-287 0
-527 -3 -534 -6z m833 -288 c0 -20 -8 -20 -312 -23 l-313 -2 0 25 0 25 313 -2
c304 -3 312 -3 312 -23z m3 -107 c3 -17 -17 -18 -322 -18 -206 0 -327 4 -331
10 -17 27 15 30 328 28 297 -3 322 -4 325 -20z m-35 -219 c26 -32 22 -83 -9
-108 -45 -35 -95 -26 -120 20 -18 37 -10 73 24 100 32 25 78 20 105 -12z
m-483 -459 c0 -18 -38 -30 -94 -30 -49 0 -56 2 -56 20 0 18 7 20 75 20 42 0
75 -4 75 -10z m500 -10 c0 -19 -7 -20 -239 -20 -234 0 -239 0 -234 20 5 19 14
20 239 20 227 0 234 -1 234 -20z m-515 -126 c-14 -11 -32 -13 -62 -9 -28 4
-43 2 -43 -4 0 -6 -7 -11 -15 -11 -8 0 -15 9 -15 20 0 18 7 20 78 20 71 -1 75
-2 57 -16z m515 -4 c0 -19 -7 -20 -240 -20 -238 0 -241 0 -230 20 10 19 21 20
240 20 223 0 230 -1 230 -20z m-5 -135 c0 -20 -7 -20 -320 -20 l-320 0 -3 23
-3 22 323 -2 c315 -3 323 -3 323 -23z m3 -132 l3 -23 -325 0 c-309 0 -326 1
-326 18 0 10 3 22 7 25 4 4 149 6 322 5 l316 -3 3 -22z m92 -452 c5 -11 10
-80 10 -155 0 -109 -3 -138 -16 -150 -20 -20 -223 -23 -242 -4 -8 8 -12 58
-12 158 0 100 4 150 12 158 8 8 50 12 125 12 101 0 113 -2 123 -19z"/>
<path d="M701 4184 c-21 -27 -21 -31 -21 -979 0 -948 0 -952 21 -979 l20 -26
626 0 626 0 -7 -112 c-4 -62 -9 -145 -13 -185 l-6 -72 -234 -3 c-253 -3 -253
-3 -253 -59 0 -14 5 -30 12 -37 17 -17 1399 -17 1416 0 7 7 12 27 12 45 0 27
-5 35 -26 43 -14 6 -120 10 -235 10 -176 0 -209 2 -209 14 0 22 -19 264 -25
314 l-5 42 624 0 c599 0 625 1 647 19 l24 19 0 965 c0 935 -1 966 -19 986
l-19 21 -1468 0 -1468 0 -20 -26z m2919 -974 l0 -910 -1430 0 -1430 0 0 910 0
910 1430 0 1430 0 0 -910z"/>
<path d="M7307 4180 c31 -28 87 -50 129 -50 37 0 111 30 134 56 l23 24 -159 0
-159 -1 32 -29z"/>
<path d="M7714 4182 c-13 -23 -28 -31 -76 -41 -56 -11 -59 -14 -56 -39 2 -15
8 -26 13 -25 6 1 27 4 48 8 l37 7 0 -151 0 -151 -45 0 c-41 0 -45 -2 -45 -25
l0 -26 118 3 c113 3 117 4 120 26 3 20 -1 22 -42 22 l-46 0 0 164 0 165 44 3
45 3 -27 42 c-33 51 -63 56 -88 15z"/>
<path d="M7946 4189 c10 -12 37 -30 59 -41 22 -11 41 -22 43 -23 2 -2 -12 -27
-31 -57 -100 -156 -117 -186 -117 -206 0 -20 6 -21 93 -24 l92 -3 3 -47 c3
-43 5 -48 28 -48 22 0 24 4 24 50 0 49 1 50 30 50 23 0 30 5 30 19 0 14 -8 21
-27 23 l-28 3 -3 123 -3 124 43 38 43 39 -149 1 -149 0 19 -21z m142 -264 l-3
-40 -62 -3 c-41 -2 -63 1 -63 8 0 6 26 50 57 97 l58 87 8 -55 c4 -30 6 -72 5
-94z"/>
<path d="M5870 4025 c0 -16 6 -25 15 -25 13 0 15 -21 15 -131 l0 -130 28 3 27
3 3 128 3 128 52 -3 52 -3 5 -123 c5 -132 11 -145 60 -140 31 4 39 34 11 43
-20 6 -21 14 -21 116 0 104 1 109 21 109 15 0 20 5 17 23 -3 21 -6 22 -145 25
l-143 3 0 -26z"/>
<path d="M6450 3992 c-22 -10 -36 -26 -38 -39 -4 -26 3 -28 38 -8 33 19 89 19
133 0 75 -31 177 -7 177 42 0 14 -3 23 -7 21 -77 -40 -83 -41 -148 -19 -75 26
-109 26 -155 3z"/>
<path d="M6725 3888 c-36 -22 -69 -23 -125 -3 -88 31 -190 9 -190 -42 0 -28 1
-28 42 -3 41 25 57 25 137 0 39 -12 76 -18 95 -15 44 9 79 37 74 62 -3 19 -4
19 -33 1z"/>
<path d="M7410 3774 c0 -33 2 -35 28 -32 22 2 28 8 30 36 3 30 1 32 -27 32
-29 0 -31 -3 -31 -36z"/>
<path d="M6123 3655 c-35 -8 -67 -17 -73 -20 -9 -6 -15 -75 -6 -75 2 0 23 9
47 20 28 12 66 20 102 20 51 0 62 -4 88 -29 34 -35 38 -74 12 -129 -10 -21
-73 -94 -140 -163 -105 -108 -123 -131 -123 -158 l0 -31 178 2 177 3 3 28 3
27 -130 0 c-72 0 -131 3 -131 6 0 3 48 56 106 117 94 99 130 150 148 210 3 9
10 17 16 17 6 0 10 -30 10 -74 0 -70 -1 -75 -22 -78 -45 -6 -22 -23 35 -26 46
-2 57 0 57 13 0 8 -9 15 -20 15 -19 0 -20 7 -20 91 l0 91 -25 -4 c-22 -5 -28
1 -44 37 -21 48 -64 83 -113 91 -18 3 -42 7 -53 9 -11 1 -48 -3 -82 -10z"/>
<path d="M6953 3523 c-7 -2 -13 -11 -13 -18 0 -11 6 -12 30 -3 23 7 34 7 45
-2 26 -22 17 -54 -30 -100 -25 -24 -45 -52 -45 -63 0 -16 7 -18 63 -15 69 3
81 21 17 26 l-41 3 41 46 c43 50 52 90 24 117 -15 15 -65 20 -91 9z"/>
<path d="M7387 3523 c-17 -16 -4 -25 26 -19 40 7 73 -13 64 -38 -4 -9 -20 -19
-37 -22 -33 -7 -41 -24 -11 -24 35 0 51 -12 51 -36 0 -29 -32 -45 -73 -37 -29
6 -38 -11 -11 -21 31 -12 74 -6 94 14 24 24 26 62 5 80 -13 11 -13 15 0 33 19
28 19 33 -5 57 -20 20 -88 28 -103 13z"/>
<path d="M6700 3460 l0 -40 -40 0 c-22 0 -40 -4 -40 -10 0 -5 18 -10 40 -10
l40 0 0 -40 c0 -22 5 -40 10 -40 6 0 10 18 10 40 l0 40 40 0 c51 0 53 18 3 22
-36 3 -38 5 -41 41 -4 50 -22 48 -22 -3z"/>
<path d="M7210 3420 c0 -11 7 -20 15 -20 8 0 15 9 15 20 0 11 -7 20 -15 20 -8
0 -15 -9 -15 -20z"/>
<path d="M7456 3198 c-26 -42 -39 -100 -33 -149 6 -51 41 -129 57 -129 14 0
12 16 -4 48 -31 60 -28 150 9 235 11 25 -12 21 -29 -5z"/>
<path d="M8287 3213 c-16 -3 -31 -11 -34 -19 -8 -22 0 -25 36 -13 25 9 36 8
56 -5 14 -9 25 -23 25 -31 0 -7 -27 -45 -60 -83 -33 -39 -60 -75 -60 -81 0 -7
27 -11 75 -11 60 0 75 3 75 15 0 11 -12 15 -52 15 l-52 0 30 33 c77 82 90 117
57 155 -20 22 -53 31 -96 25z"/>
<path d="M8480 3178 c24 -53 26 -140 4 -204 -17 -50 -12 -68 11 -38 25 33 48
122 40 162 -10 56 -42 122 -59 122 -13 0 -12 -6 4 -42z"/>
<path d="M7573 3203 c-26 -10 -14 -34 15 -31 l27 3 3 -87 3 -87 -27 -3 c-15
-2 -29 -9 -32 -15 -3 -10 15 -13 67 -13 56 0 71 3 71 15 0 9 -9 15 -25 15
l-25 0 0 105 0 105 -32 -1 c-18 0 -39 -3 -45 -6z"/>
<path d="M7877 3083 c-19 -18 2 -23 98 -23 87 0 105 3 105 15 0 12 -18 15 -98
15 -54 0 -102 -3 -105 -7z"/>
<path d="M5847 2873 c-2 -4 -10 -25 -17 -46 -10 -33 -10 -45 5 -83 21 -55 29
-52 16 5 -5 25 -5 57 0 82 9 39 7 61 -4 42z"/>
<path d="M5918 2872 c-10 -2 -18 -8 -18 -13 0 -5 10 -7 23 -4 15 4 28 1 36 -9
11 -14 8 -22 -23 -56 -20 -22 -36 -45 -36 -50 0 -6 20 -10 45 -10 25 0 45 5
45 10 0 6 -14 10 -31 10 l-31 0 31 35 c17 20 31 42 31 49 0 24 -40 46 -72 38z"/>
<path d="M6328 2872 c-10 -2 -18 -8 -18 -13 0 -5 10 -7 23 -4 15 4 28 1 36 -9
10 -12 6 -21 -23 -54 -20 -22 -36 -45 -36 -51 0 -6 18 -11 46 -11 27 0 43 4
39 10 -3 6 -18 10 -32 10 l-25 0 31 35 c35 40 36 45 19 67 -16 18 -37 26 -60
20z"/>
<path d="M6446 2839 c11 -31 12 -49 4 -81 -15 -52 -5 -62 15 -15 19 45 19 48
-1 97 -21 52 -36 52 -18 -1z"/>
<path d="M6140 2825 c0 -20 -5 -25 -25 -25 -14 0 -25 -4 -25 -10 0 -5 11 -10
25 -10 20 0 25 -5 25 -25 0 -14 5 -25 10 -25 6 0 10 11 10 25 0 20 5 25 25 25
14 0 25 5 25 10 0 6 -11 10 -25 10 -20 0 -25 5 -25 25 0 14 -4 25 -10 25 -5 0
-10 -11 -10 -25z"/>
<path d="M7020 2783 c-29 -11 -70 -57 -81 -91 -15 -46 -15 -179 0 -225 7 -20
28 -50 48 -68 33 -28 41 -31 85 -27 92 9 128 68 128 208 0 99 -12 141 -53 179
-26 23 -96 37 -127 24z m102 -74 c23 -30 34 -124 24 -193 -14 -90 -84 -129
-132 -73 -43 50 -44 219 -2 272 27 35 82 32 110 -6z"/>
<path d="M6630 2771 c-17 -5 -26 -15 -28 -33 -3 -25 -2 -26 35 -17 21 5 41 9
46 9 4 0 7 -70 7 -155 l0 -155 -45 0 c-38 0 -45 -3 -45 -20 0 -19 7 -20 120
-20 113 0 120 1 120 20 0 17 -7 20 -45 20 l-45 0 0 180 0 180 -47 -1 c-27 -1
-59 -4 -73 -8z"/>
<path d="M7335 2771 c-24 -5 -31 -12 -33 -34 -3 -24 0 -28 15 -24 10 3 33 8
51 12 l33 7 -3 -154 -3 -153 -42 -3 c-35 -3 -43 -7 -43 -23 0 -18 8 -19 115
-19 107 0 115 1 115 19 0 16 -8 20 -42 23 l-43 3 -3 178 -2 177 -43 -1 c-23
-1 -55 -4 -72 -8z"/>
<path d="M7830 2605 l0 -25 173 2 c170 3 172 3 175 26 l3 22 -175 0 -176 0 0
-25z"/>
<path d="M7613 2513 c-7 -2 -13 -11 -13 -19 0 -10 6 -11 26 -4 34 13 40 13 58
-6 24 -23 21 -30 -34 -88 -27 -29 -50 -58 -50 -64 0 -8 23 -12 65 -12 37 0 65
4 65 10 0 6 -21 10 -46 10 l-46 0 35 39 c19 22 40 48 46 59 13 25 0 66 -24 76
-19 7 -64 7 -82 -1z"/>
<path d="M7830 2495 l0 -25 173 2 c170 3 172 3 175 26 l3 22 -175 0 -176 0 0
-25z"/>
</g>
</svg>
